<svg fill="none" xmlns="http://www.w3.org/2000/svg" viewBox="0 0 47 47">
  <path d="M47 23.5C47 36.479 36.479 47 23.5 47S0 36.479 0 23.5 10.521 0 23.5 0 47 10.521 47 23.5zm-42.3 0c0 10.383 8.417 18.8 18.8 18.8 10.383 0 18.8-8.417 18.8-18.8 0-10.383-8.417-18.8-18.8-18.8-10.383 0-18.8 8.417-18.8 18.8z" fill="#F2F2F4"/>
  <path d="M23.5 2.35c0-1.298 1.055-2.362 2.346-2.233A23.5 23.5 0 11.117 25.847c-.13-1.292.935-2.347 2.233-2.347s2.335 1.056 2.497 2.344A18.8 18.8 0 1025.844 4.847c-1.288-.162-2.344-1.2-2.344-2.497z" fill="#006E28"/>
</svg>
